<?xml version="1.0" encoding="UTF-8" standalone="no"?>
<!-- Created with Inkscape (http://www.inkscape.org/) -->

<svg
   width="370"
   height="217"
   version="1.1"
   viewBox="0 0 97.898015 57.415254"
   id="svg74"
   sodipodi:docname="AAlogo.svg"
   inkscape:version="1.1.2 (b8e25be8, 2022-02-05)"
   xmlns:inkscape="http://www.inkscape.org/namespaces/inkscape"
   xmlns:sodipodi="http://sodipodi.sourceforge.net/DTD/sodipodi-0.dtd"
   xmlns="http://www.w3.org/2000/svg"
   xmlns:svg="http://www.w3.org/2000/svg">
  <sodipodi:namedview
     id="namedview76"
     pagecolor="#ffffff"
     bordercolor="#666666"
     borderopacity="1.0"
     inkscape:pageshadow="2"
     inkscape:pageopacity="0.0"
     inkscape:pagecheckerboard="0"
     showgrid="false"
     inkscape:zoom="0.76947816"
     inkscape:cx="203.38459"
     inkscape:cy="212.48166"
     inkscape:window-width="1280"
     inkscape:window-height="681"
     inkscape:window-x="0"
     inkscape:window-y="25"
     inkscape:window-maximized="0"
     inkscape:current-layer="svg74" />
  <defs
     id="defs14">
    <linearGradient
       id="linearGradient20404"
       x1="104.85"
       x2="104.83"
       y1="142.67"
       y2="147.39999"
       gradientTransform="matrix(11.66,0,0,11.66,-1025.1,-1514.2)"
       gradientUnits="userSpaceOnUse">
      <stop
         stop-color="#105997"
         offset="0"
         id="stop9" />
      <stop
         stop-color="#105997"
         stop-opacity="0"
         offset="1"
         id="stop11" />
    </linearGradient>
  </defs>
  <rect
     style="fill:#ffffff;stroke-width:2.72826"
     id="rect350"
     width="123.38065"
     height="90.064995"
     x="145.48445"
     y="156.04726"
     inkscape:export-filename="/Users/calebhodges/Documents/App Development/App Graphics Images/AbidingAbove/App Icons/New App Icon/1536x1536(Original)AppIcon.png"
     inkscape:export-xdpi="96.150002"
     inkscape:export-ydpi="96.150002" />
  <g
     transform="matrix(0.40368233,0,0,0.40368233,-29.764022,-54.491952)"
     id="g72">
    <path
       d="m 158.65,179.61 38.849,-38.555 38.974,38.934 -38.723,39.187 z"
       id="path16" />
    <path
       d="m 162.54,179.66 34.964,-34.699 35.077,35.04 -34.851,35.268 z"
       fill="#ffffff"
       id="path18" />
    <path
       d="m 181.51,195.04 -15.029,-14.974 30.994,-30.719 30.554,30.719 -14.589,14.589 -14.919,-14.534 v -13.433 h 5.6153 l -0.0233,-1.8753 -5.6001,0.0233 0.0583,-6.0504 -1.9818,-0.0117 -0.07,6.145 -5.9593,-0.035 -0.0233,1.7102 6.0006,0.0583 v 13.378 z"
       fill="url(#linearGradient20404)"
       id="path20"
       style="fill:url(#linearGradient20404)" />
    <g
       stroke-width="3.085"
       id="g36">
      <path
         d="m 107.51,245.86 c 0,1.4397 -0.2058,2.0567 -2.468,2.7971 -0.4938,0.16441 -1.0283,0.288 -1.4808,0.288 -1.522,0 -2.7148,-1.2751 -2.7148,-3.2085 v -0.0816 c 0,-1.3986 0.45241,-3.702 6.6637,-5.7588 z m 3.3318,-7.2807 c 0,-2.4681 0,-6.5815 -6.129,-6.5815 -4.7715,0 -6.93,4.4741 -6.93,6.1194 3.4135,-2.8425 4.4375,-4.2849 6.433,-4.5101 1.0177,-0.0583 3.2941,0.27285 3.2941,2.793 v 2.5091 c -6.7048,2.6326 -10.283,4.0311 -10.283,8.1445 0,2.756 2.139,4.2779 4.3602,4.2779 2.2624,0 4.4425,-1.6453 5.9644,-3.0028 0.2058,2.9616 1.9333,3.0028 2.6737,3.0028 0.65809,0 1.9333,-0.0466 3.6609,-2.0567 v -1.0692 c -0.24661,0.20522 -0.49381,0.36963 -0.78157,0.5352 -0.28801,0.1644 -0.65809,0.24719 -1.0695,0.24719 -1.1929,0 -1.1929,-1.1929 -1.1929,-2.3858 z"
         id="path22" />
      <path
         d="m 118.67,237.67 c 0.16441,-2.3447 2.7971,-3.0851 4.1134,-3.0851 3.7432,0 5.224,4.2369 5.224,8.0623 0,2.7148 -0.65809,7.3629 -5.3886,7.3629 -1.0283,0 -3.9488,-0.53519 -3.9488,-1.9744 v -2.5914 z m -6.17,-13.04 v 0.65879 c 0.2466,-0.0466 0.65809,-0.0466 0.90493,-0.0466 1.8099,0 1.8099,0.86401 1.8099,2.0979 v 21.348 c 0,1.5631 4.3602,2.6326 6.3757,2.6326 1.2752,0 2.3858,-0.1644 3.373,-0.49321 4.9772,-1.6043 6.6637,-6.6226 6.6637,-9.7076 0,-4.4013 -2.3446,-9.1318 -7.3218,-9.1318 -3.1262,0 -5.3063,2.3859 -5.5531,3.3318 h -0.0828 v -12.422 c -0.0828,-0.0466 -0.1236,-0.0466 -0.2058,-0.0816 -1.9745,0.6996 -3.99,1.2751 -5.9644,1.8099 z"
         id="path24" />
      <path
         d="m 141.77,250.91 v -0.61682 c -2.7971,-0.1644 -3.0439,-0.82319 -3.0439,-3.5787 v -14.603 c -0.0408,-0.0466 -0.1236,-0.0816 -0.16441,-0.1236 -2.139,0.78122 -4.2368,1.5631 -6.3758,2.2624 v 0.61681 c 0.53461,-0.0816 1.0695,-0.1644 1.6454,-0.1644 0.65809,0 1.4397,0.0466 1.4397,2.468 v 9.5431 c 0,3.2085 -0.69925,3.4552 -3.2496,3.5787 v 0.61681 z m -7.1984,-25.997 c 0,0.78122 0.576,2.0978 2.0567,2.0978 1.234,0 2.139,-0.90481 2.139,-2.0978 0,-1.152 -0.90493,-2.0979 -2.139,-2.0979 -1.4397,0 -2.0567,1.3163 -2.0567,2.0979 z"
         id="path26" />
      <path
         d="m 155.19,246.72 c -0.32881,1.4808 -1.9333,2.4681 -3.6609,2.4681 -2.7149,0 -5.6766,-2.3036 -5.6766,-8.4325 0,-5.5942 2.7971,-7.6098 5.1007,-7.6098 1.8922,0 3.9899,1.4397 4.2368,4.1134 z m 6.2113,2.4681 v -0.65762 c -2.7561,0.20521 -2.7561,-0.61682 -2.7561,-2.3034 v -23.323 c -0.0816,-0.0466 -0.12359,-0.0466 -0.20521,-0.0816 -1.9745,0.6996 -3.9901,1.2751 -6.0468,1.8099 v 0.65879 c 0.32881,-0.0466 0.74041,-0.0466 0.9876,-0.0466 1.8099,0 1.8099,0.864 1.8099,2.0979 v 6.4168 c -1.3574,-1.1929 -2.5914,-1.7688 -4.3601,-1.7688 -0.65762,0 -1.3163,0.1236 -1.9333,0.288 -3.702,1.0692 -6.5814,5.224 -6.5814,9.831 0,8.3914 5.7998,9.214 7.4863,9.214 3.044,0 4.5658,-1.522 5.3062,-2.6326 h 0.0816 v 2.5092 c 0.0466,0.0466 0.1236,0.0816 0.16441,0.12359 2.1801,-0.78122 4.0722,-1.4397 6.0468,-2.1389 z"
         id="path28" />
      <path
         d="m 170.6,250.91 v -0.61682 c -2.7971,-0.1644 -3.044,-0.82319 -3.044,-3.5787 v -14.603 c -0.0466,-0.0466 -0.1236,-0.0816 -0.16441,-0.1236 -2.1389,0.78122 -4.2368,1.5631 -6.3758,2.2624 v 0.61681 c 0.53519,-0.0816 1.0692,-0.1644 1.6455,-0.1644 0.65762,0 1.4397,0.0466 1.4397,2.468 v 9.5431 c 0,3.2085 -0.6996,3.4552 -3.2496,3.5787 v 0.61681 z m -7.1984,-25.997 c 0,0.78122 0.57601,2.0978 2.0566,2.0978 1.2341,0 2.139,-0.90481 2.139,-2.0978 0,-1.152 -0.90482,-2.0979 -2.139,-2.0979 -1.4397,0 -2.0566,1.3163 -2.0566,2.0979 z"
         id="path30" />
      <path
         d="m 176.65,232.08 c -0.0816,-0.0466 -0.20522,-0.0466 -0.288,-0.0816 -1.8922,0.6996 -3.8255,1.3163 -5.6766,1.851 v 0.6996 c 0.16441,-0.0816 0.61682,-0.16441 1.1929,-0.16441 0.61681,0 1.4397,0.0466 1.4397,2.6325 v 10.201 c 0,2.4269 -0.61681,2.9616 -2.5503,3.0851 v 0.61682 h 8.7204 v -0.61682 c -2.139,-0.12359 -2.7149,-0.78122 -2.7149,-2.139 v -11.559 c 1.5631,-1.522 2.8383,-2.3447 4.0724,-2.3447 2.3858,0 3.1672,1.4808 3.1672,3.99 v 8.5969 c 0,3.1262 -1.0692,3.3318 -2.5914,3.4553 v 0.61682 h 8.5559 v -0.61682 c -2.0155,-0.1644 -2.5091,-0.74041 -2.5091,-2.7149 v -9.4196 c 0,-5.0595 -2.9205,-6.1701 -4.8127,-6.1701 -2.4269,0 -3.99,1.4398 -6.0056,3.3318 z"
         id="path32" />
      <path
         d="m 208.36,233.35 h -3.1673 c -2.0979,0 -4.4425,-1.3575 -6.2523,-1.3575 -3.1262,0 -7.0751,1.9745 -7.0751,6.8694 0,2.3858 1.3985,4.2779 3.8254,5.3474 -3.6609,3.2496 -3.6609,3.7844 -3.6609,4.4836 0,1.152 1.0692,1.6453 2.1801,2.1802 -2.0567,1.4397 -4.0311,3.1672 -4.0311,5.0182 0,2.1802 3.085,3.9901 7.2807,3.9901 3.702,0 10.53,-2.3036 10.53,-6.9517 0,-1.234 -0.576,-4.1133 -4.9772,-4.4013 -2.8383,-0.1644 -8.5147,0.1236 -8.5147,-1.3573 0,-0.82319 1.6453,-2.5092 2.468,-2.5916 0.24719,0 1.7277,0.20522 2.2212,0.20522 2.3035,0 6.5403,-1.6042 6.5403,-6.0466 0,-2.0567 -0.37079,-2.8383 -0.78122,-3.7844 h 3.4142 z m -6.5815,18.181 c 3.044,0.0816 5.0595,0.16441 5.0595,2.0156 0,2.1801 -2.7971,3.99 -7.6098,3.99 -4.6893,0 -6.1701,-1.6455 -6.1701,-2.9206 0,-1.234 0.74041,-2.0978 2.0157,-3.6197 1.9332,0.41159 2.8382,0.41159 6.7047,0.53519 z m -3.414,-18.387 c 2.8383,0 3.8254,3.4964 4.1134,5.5119 0.0816,0.49322 0.0816,0.90482 0.0816,1.152 0,0.90481 -0.20522,3.9489 -3.0028,3.9489 -2.5503,0 -3.7843,-2.3446 -4.1545,-4.936 -0.0816,-0.65879 -0.1236,-1.3163 -0.1236,-1.9745 0,-2.756 1.6043,-3.702 3.0851,-3.702 z"
         id="path34" />
    </g>
    <g
       fill="#005595"
       stroke-width="3.085"
       id="g48">
      <path
         d="m 219.65,248.39 c -1.888,1.4595 -3.073,2.3031 -3.555,2.5307 -0.72292,0.33464 -1.4928,0.50254 -2.3097,0.50254 -1.272,0 -2.3231,-0.43492 -3.1533,-1.3056 -0.81737,-0.86983 -1.2252,-2.0151 -1.2252,-3.4344 0,-0.89666 0.20055,-1.6738 0.60282,-2.3299 0.54919,-0.91065 1.4995,-1.7674 2.852,-2.5709 1.3657,-0.80337 3.6287,-1.7808 6.7887,-2.9324 v -0.72292 c 0.41742,-7.3706 -6.6447,-4.0079 -9.2496,-1.2167 1.8671,-5.6748 7.7745,-6.0961 10.451,-3.9854 0.79054,0.4151 1.3725,1.0646 1.7474,1.9483 0.24137,0.57601 0.36146,1.7544 0.36146,3.535 v 6.2464 c 0,1.754 0.035,2.832 0.10494,3.2337 0.07,0.38828 0.17724,0.64946 0.32182,0.78355 0.16091,0.13409 0.34164,0.20055 0.54219,0.20055 0.21454,0 0.40227,-0.0466 0.56201,-0.14108 0.28101,-0.17374 0.8232,-0.66346 1.6268,-1.4662 v 1.1252 c -1.4996,2.0084 -2.9324,3.0127 -4.2981,3.0127 -0.65646,0 -1.1782,-0.22737 -1.5666,-0.68327 -0.38828,-0.45591 -0.58883,-1.2321 -0.60282,-2.3299 z m 0,-1.3054 v -7.0096 c -2.0218,0.80338 -3.3273,1.3724 -3.9165,1.7071 -1.0576,0.58883 -1.8144,1.2052 -2.2696,1.8479 -0.45591,0.64247 -0.68328,1.3458 -0.68328,2.109 0,0.96428 0.288,1.7674 0.86401,2.4101 0.576,0.62964 1.2388,0.94446 1.9884,0.94446 1.0179,0 2.3567,-0.66929 4.017,-2.0084 z"
         id="path38" />
      <path
         d="m 230.59,235.82 q 2.6713,-3.7157 5.7644,-3.7157 2.832,0 4.9409,2.4302 2.1089,2.4102 2.1089,6.608 0,4.9007 -3.2537,7.8934 -2.7919,2.5709 -6.2264,2.5709 -1.6068,0 -3.2738,-0.58183 -1.647,-0.583 -3.3743,-1.7475 v -19.06 q 0,-3.1333 -0.1609,-3.8563 -0.14109,-0.72292 -0.46174,-0.98411 -0.32182,-0.26118 -0.80337,-0.26118 -0.56202,0 -1.406,0.32181 l -0.281,-0.70309 5.5233,-2.2496 h 0.90365 z m 0,1.2854 v 11.007 q 1.0238,1.0039 2.1089,1.5264 1.1042,0.50254 2.2494,0.50254 1.8278,0 3.3945,-2.0084 1.5867,-2.0086 1.5867,-5.8447 0,-3.535 -1.5867,-5.423 -1.5666,-1.908 -3.5752,-1.908 -1.0646,0 -2.129,0.54219 -0.80337,0.4011 -2.0487,1.6067 z"
         id="path40" />
      <path
         d="m 254.47,232.11 q 4.1777,0 6.7084,3.1734 2.1492,2.7114 2.1492,6.2263 0,2.4704 -1.185,5.0011 -1.1851,2.5307 -3.2739,3.8162 -2.0687,1.2854 -4.6196,1.2854 -4.1575,0 -6.608,-3.314 -2.0687,-2.7918 -2.0687,-6.2666 0,-2.5307 1.2453,-5.0212 1.2653,-2.5106 3.314,-3.6956 2.0487,-1.2051 4.3383,-1.2051 z m -0.62264,1.3055 q -1.0646,0 -2.1491,0.64246 -1.0646,0.62265 -1.7273,2.2093 -0.66229,1.5867 -0.66229,4.0773 0,4.017 1.5867,6.9293 1.6067,2.9123 4.2178,2.9123 1.9483,0 3.2136,-1.6068 1.2653,-1.6069 1.2653,-5.5235 0,-4.9007 -2.1089,-7.7125 -1.426,-1.9282 -3.6354,-1.9282 z"
         id="path42" />
      <path
         d="m 262.38,232.65 h 8.6566 v 0.74274 h -0.56201 q -0.78355,0 -1.2051,0.38129 -0.4011,0.38128 -0.4011,1.0249 0,0.7031 0.42209,1.667 l 4.2782,10.163 4.2981,-10.545 q 0.46173,-1.1252 0.46173,-1.7073 0,-0.281 -0.1609,-0.46173 -0.22154,-0.30083 -0.56202,-0.40227 -0.34163,-0.1201 -1.3859,-0.1201 v -0.74274 h 6.0055 v 0.74274 q -1.0447,0.0816 -1.4462,0.42209 -0.7031,0.60282 -1.2653,2.0086 l -6.5276,15.787 h -0.8232 l -6.5678,-15.526 q -0.44192,-1.0844 -0.84302,-1.5466 -0.4011,-0.48156 -1.0249,-0.80338 -0.34164,-0.18073 -1.3457,-0.34164 z"
         id="path44" />
      <path
         d="m 283.28,239.58 q -0.0233,4.0973 1.9884,6.4272 2.0086,2.3298 4.72,2.3298 1.8076,0 3.1333,-0.98411 1.3457,-1.0039 2.2494,-3.4144 l 0.62264,0.4011 q -0.42209,2.7516 -2.4504,5.0212 -2.0286,2.2496 -5.0814,2.2496 -3.314,0 -5.684,-2.5709 -2.35,-2.5909 -2.35,-6.9494 0,-4.72 2.4101,-7.351 2.4303,-2.6512 6.0858,-2.6512 3.093,0 5.0814,2.0487 1.9884,2.0286 1.9884,5.443 z m 0,-1.1648 h 8.516 q -0.10494,-1.7675 -0.42209,-2.4906 -0.50255,-1.1252 -1.5064,-1.7674 -0.98411,-0.64246 -2.0688,-0.64246 -1.667,0 -2.9926,1.3056 -1.3055,1.2854 -1.5264,3.5952 z"
         id="path46" />
    </g>
    <g
       transform="matrix(11.66,0,0,11.66,-1025.1,-1514.2)"
       fill="#a8a9ab"
       fill-opacity="0.59608"
       stroke-width="0.26458"
       aria-label="MINISTRIES"
       id="g70">
      <path
         d="m 99.765,153.4 v -0.63131 h 0.10292 l 0.12273,0.447 0.02454,0.0934 q 0.009,-0.0349 0.0276,-0.1012 l 0.12403,-0.43925 h 0.0922 v 0.63131 h -0.0659 v -0.52839 l -0.15073,0.52839 h -0.06158 l -0.14986,-0.53743 v 0.53743 z"
         id="path50" />
      <path
         d="m 101.09,153.4 v -0.63131 h 0.0685 V 153.4 Z"
         id="path52" />
      <path
         d="m 101.99,153.4 v -0.63131 h 0.0702 l 0.27216,0.49566 v -0.49566 h 0.0654 V 153.4 h -0.0702 l -0.27173,-0.49609 V 153.4 Z"
         id="path54" />
      <path
         d="m 103.24,153.4 v -0.63131 h 0.0685 V 153.4 Z"
         id="path56" />
      <path
         d="m 104.12,153.2 0.0646,-0.007 q 0.005,0.0521 0.0233,0.0814 0.0185,0.0289 0.0525,0.0465 0.034,0.0177 0.0767,0.0177 0.0611,0 0.0947,-0.0297 0.034,-0.0301 0.034,-0.0779 0,-0.028 -0.0125,-0.0487 -0.0121,-0.0211 -0.037,-0.0345 -0.0245,-0.0134 -0.1068,-0.0375 -0.0732,-0.0215 -0.10422,-0.0435 -0.031,-0.022 -0.0482,-0.0556 -0.0172,-0.034 -0.0172,-0.0767 0,-0.0767 0.0495,-0.12531 0.0495,-0.0487 0.1335,-0.0487 0.0577,0 0.10077,0.0228 0.0435,0.0228 0.0672,0.0654 0.0241,0.0426 0.0258,0.10034 l -0.0659,0.006 q -0.005,-0.0616 -0.037,-0.0913 -0.0314,-0.0297 -0.0887,-0.0297 -0.0581,0 -0.0887,0.0263 -0.0306,0.0258 -0.0306,0.0672 0,0.0383 0.0224,0.0594 0.0224,0.0211 0.10077,0.0426 0.0767,0.0211 0.10766,0.0366 0.0474,0.0241 0.0715,0.0637 0.0241,0.0392 0.0241,0.0939 0,0.0543 -0.0254,0.0991 -0.0254,0.0444 -0.0693,0.0676 -0.0435,0.0232 -0.10508,0.0232 -0.096,0 -0.1533,-0.0577 -0.0568,-0.0577 -0.059,-0.15632 z"
         id="path58" />
      <path
         d="m 105.44,153.4 v -0.55681 h -0.17053 v -0.0745 h 0.41039 v 0.0745 h -0.17139 V 153.4 Z"
         id="path60" />
      <path
         d="m 106.44,153.4 v -0.63131 h 0.22953 q 0.0719,0 0.10594,0.0177 0.0344,0.0176 0.0564,0.059 0.022,0.0409 0.022,0.0952 0,0.0715 -0.0375,0.11584 -0.037,0.0444 -0.10809,0.0564 0.0289,0.0172 0.0439,0.0349 0.0306,0.0362 0.0538,0.0805 l 0.0904,0.17182 h -0.0861 l -0.0689,-0.13134 q -0.0401,-0.0771 -0.0607,-0.10378 -0.0202,-0.0267 -0.0396,-0.0358 -0.019,-0.009 -0.0534,-0.009 h -0.0792 v 0.28034 z m 0.0685,-0.35269 h 0.14728 q 0.0482,0 0.0732,-0.0116 0.025,-0.0116 0.0396,-0.0366 0.0146,-0.025 0.0146,-0.0581 0,-0.0478 -0.028,-0.0749 -0.028,-0.0276 -0.0831,-0.0276 h -0.16365 z"
         id="path62" />
      <path
         d="m 107.65,153.4 v -0.63131 h 0.0685 V 153.4 Z"
         id="path64" />
      <path
         d="m 108.52,153.4 v -0.63131 h 0.37423 v 0.0745 h -0.30576 v 0.19336 h 0.28638 v 0.0741 h -0.28638 v 0.21488 h 0.31781 v 0.0745 z"
         id="path66" />
      <path
         d="m 109.6,153.2 0.0646,-0.007 q 0.005,0.0521 0.0232,0.0814 0.0185,0.0289 0.0525,0.0465 0.034,0.0177 0.0767,0.0177 0.0611,0 0.0947,-0.0297 0.034,-0.0301 0.034,-0.0779 0,-0.028 -0.0125,-0.0487 -0.0121,-0.0211 -0.037,-0.0345 -0.0246,-0.0134 -0.1068,-0.0375 -0.0732,-0.0215 -0.10421,-0.0435 -0.031,-0.022 -0.0482,-0.0556 -0.0172,-0.034 -0.0172,-0.0767 0,-0.0767 0.0495,-0.12531 0.0495,-0.0487 0.1335,-0.0487 0.0577,0 0.10077,0.0228 0.0435,0.0228 0.0672,0.0654 0.0241,0.0426 0.0258,0.10034 l -0.0659,0.006 q -0.005,-0.0616 -0.037,-0.0913 -0.0314,-0.0297 -0.0887,-0.0297 -0.0581,0 -0.0887,0.0263 -0.0306,0.0258 -0.0306,0.0672 0,0.0383 0.0224,0.0594 0.0224,0.0211 0.10077,0.0426 0.0766,0.0211 0.10766,0.0366 0.0474,0.0241 0.0715,0.0637 0.0241,0.0392 0.0241,0.0939 0,0.0543 -0.0254,0.0991 -0.0254,0.0444 -0.0693,0.0676 -0.0435,0.0232 -0.10508,0.0232 -0.096,0 -0.1533,-0.0577 -0.0568,-0.0577 -0.059,-0.15632 z"
         id="path68" />
    </g>
  </g>
</svg>
